<svg xmlns="http://www.w3.org/2000/svg" width="103" height="579.57" viewBox="0 0 103 579.57">
  <g id="Group_386" data-name="Group 386" transform="translate(-7208 -326)">
    <g id="Group_347" data-name="Group 347" transform="translate(7148 290)">
      <g id="Group_345" data-name="Group 345" transform="translate(59.921 36)">
        <g id="Subtraction_8" data-name="Subtraction 8" transform="translate(0.079)" fill="#08c">
          <path d="M 51.49946594238281 102.75 C 44.58086776733398 102.75 37.86930847167969 101.3949737548828 31.55120086669922 98.72254943847656 C 25.44852066040039 96.14126586914063 19.9676399230957 92.44587707519531 15.26084041595459 87.73902893066406 C 10.55405330657959 83.03213500976563 6.85869312286377 77.55116271972656 4.277413368225098 71.44834899902344 C 1.605013370513916 65.13005065917969 0.25 58.41828155517578 0.25 51.49946594238281 C 0.25 44.58090591430664 1.605013370513916 37.86933517456055 4.277413368225098 31.55120086669922 C 6.85867977142334 25.44854736328125 10.55403995513916 19.96767997741699 15.26084041595459 15.26084041595459 C 19.96767997741699 10.55403995513916 25.44854736328125 6.85867977142334 31.55120086669922 4.277413368225098 C 37.86933517456055 1.605013370513916 44.58090591430664 0.25 51.49946594238281 0.25 C 58.41828155517578 0.25 65.13005065917969 1.605013370513916 71.44834899902344 4.277413368225098 C 77.55116271972656 6.85869312286377 83.03213500976563 10.55405330657959 87.73902893066406 15.26084041595459 C 92.44587707519531 19.9676399230957 96.14126586914063 25.44852066040039 98.72254943847656 31.55120086669922 C 101.3949737548828 37.86930847167969 102.75 44.58086776733398 102.75 51.49946594238281 C 102.75 58.41831970214844 101.3949737548828 65.13009643554688 98.72254943847656 71.44834899902344 C 96.14125061035156 77.55118560791016 92.44586944580078 83.03215789794922 87.73902893066406 87.73902893066406 C 83.03215789794922 92.44586944580078 77.55118560791016 96.14125061035156 71.44834899902344 98.72254943847656 C 65.13009643554688 101.3949737548828 58.41831970214844 102.75 51.49946594238281 102.75 Z M 51.49946594238281 31.71540069580078 C 40.59049224853516 31.71540069580078 31.71540069580078 40.59049224853516 31.71540069580078 51.49946594238281 C 31.71540069580078 62.40901184082031 40.59049224853516 71.28458404541016 51.49946594238281 71.28458404541016 C 62.40901184082031 71.28458404541016 71.28458404541016 62.40901184082031 71.28458404541016 51.49946594238281 C 71.28458404541016 40.59049224853516 62.40901184082031 31.71540069580078 51.49946594238281 31.71540069580078 Z" stroke="none"/>
          <path d="M 51.49946594238281 102.5 C 58.38468170166016 102.5 65.06368255615234 101.151611328125 71.35095977783203 98.49229431152344 C 77.42400360107422 95.92359924316406 82.87826538085938 92.24620056152344 87.56224060058594 87.562255859375 C 92.24620056152344 82.87826538085938 95.92359924316406 77.42400360107422 98.49229431152344 71.35095977783203 C 101.151611328125 65.06368255615234 102.5 58.38468170166016 102.5 51.49946594238281 C 102.5 44.61450576782227 101.151611328125 37.93570709228516 98.49229431152344 31.64858627319336 C 95.92362976074219 25.57570648193359 92.24622344970703 20.12154579162598 87.562255859375 15.43762683868408 C 82.87824249267578 10.75370693206787 77.42397308349609 7.076333522796631 71.35095977783203 4.50766658782959 C 65.06363677978516 1.848373293876648 58.38463973999023 0.5 51.49946594238281 0.5 C 44.61454772949219 0.5 37.93574523925781 1.848373293876648 31.64858627319336 4.50766658782959 C 25.57573318481445 7.076320171356201 20.12157249450684 10.75369358062744 15.43762683868408 15.43761348724365 C 10.75369358062744 20.12157249450684 7.076320171356201 25.57573318481445 4.50766658782959 31.64858627319336 C 1.848373293876648 37.93574523925781 0.5 44.61454772949219 0.5 51.49946594238281 C 0.5 58.38463973999023 1.848373293876648 65.06363677978516 4.50766658782959 71.35095977783203 C 7.076333522796631 77.42397308349609 10.75370693206787 82.87824249267578 15.43762683868408 87.562255859375 C 20.12154579162598 92.24622344970703 25.57570648193359 95.92362976074219 31.64859962463379 98.4923095703125 C 37.93570709228516 101.151611328125 44.61450576782227 102.5 51.49946594238281 102.5 M 51.49946594238281 31.46540069580078 C 62.54686737060547 31.46540069580078 71.53458404541016 40.45264053344727 71.53458404541016 51.49946594238281 C 71.53458404541016 62.54686737060547 62.54686737060547 71.53458404541016 51.49946594238281 71.53458404541016 C 40.45264053344727 71.53458404541016 31.46540069580078 62.54686737060547 31.46540069580078 51.49946594238281 C 31.46540069580078 40.45264053344727 40.45264053344727 31.46540069580078 51.49946594238281 31.46540069580078 M 51.49946594238281 103 C 44.54721450805664 103 37.80287933349609 101.6383209228516 31.45381355285645 98.95279693603516 C 25.32133293151855 96.35891723632813 19.81374740600586 92.64553070068359 15.08406639099121 87.91580200195313 C 10.35441303253174 83.18605041503906 6.641053199768066 77.67837524414063 4.047160148620605 71.54573059082031 C 1.361666679382324 65.19646453857422 0 58.45193481445313 0 51.49946594238281 C 0 44.5472526550293 1.361666679382324 37.80292129516602 4.047160148620605 31.45381355285645 C 6.641039848327637 25.32133293151855 10.35439968109131 19.81376075744629 15.08406639099121 15.08406639099121 C 19.81376075744629 10.35439968109131 25.32133293151855 6.641039848327637 31.45381355285645 4.047160148620605 C 37.80292129516602 1.361666679382324 44.5472526550293 0 51.49946594238281 0 C 58.45193481445313 0 65.19646453857422 1.361666679382324 71.54573059082031 4.047160148620605 C 77.67837524414063 6.641053199768066 83.18605041503906 10.35441303253174 87.91580200195313 15.08406639099121 C 92.64553070068359 19.81374740600586 96.35891723632813 25.32133293151855 98.95279693603516 31.45381355285645 C 101.6383209228516 37.80287933349609 103 44.54721450805664 103 51.49946594238281 C 103 58.45196151733398 101.6383209228516 65.19651031494141 98.95279693603516 71.54573059082031 C 96.35889434814453 77.67838287353516 92.6455078125 83.18606567382813 87.91580200195313 87.91580200195313 C 83.18606567382813 92.6455078125 77.67838287353516 96.35889434814453 71.54573059082031 98.95279693603516 C 65.19651031494141 101.6383209228516 58.45196151733398 103 51.49946594238281 103 Z M 51.49946594238281 31.96540069580078 C 40.72834777832031 31.96540069580078 31.96540069580078 40.72834777832031 31.96540069580078 51.49946594238281 C 31.96540069580078 62.27118682861328 40.72834777832031 71.03458404541016 51.49946594238281 71.03458404541016 C 62.27118682861328 71.03458404541016 71.03458404541016 62.27118682861328 71.03458404541016 51.49946594238281 C 71.03458404541016 40.72834777832031 62.27118682861328 31.96540069580078 51.49946594238281 31.96540069580078 Z" stroke="none" fill="#fff"/>
        </g>
        <path id="Subtraction_9" data-name="Subtraction 9" d="M74.489,439.624H2a2,2,0,0,1-2-2V0C12.526,7.14,25.6,10.76,38.852,10.76A77.5,77.5,0,0,0,76.488.681V437.624A2,2,0,0,1,74.489,439.624Z" transform="translate(10.173 139.946)" fill="#08c"/>
      </g>
    </g>
  </g>
</svg>
