<svg xmlns="http://www.w3.org/2000/svg" xmlns:xlink="http://www.w3.org/1999/xlink" width="44" height="44" viewBox="0 0 44 44">
  <defs>
    <filter id="Ellipse_2" x="0" y="0" width="44" height="44" filterUnits="userSpaceOnUse">
      <feOffset dy="3" input="SourceAlpha"/>
      <feGaussianBlur stdDeviation="4" result="blur"/>
      <feFlood flood-opacity="0.161"/>
      <feComposite operator="in" in2="blur"/>
      <feComposite in="SourceGraphic"/>
    </filter>
  </defs>
  <g id="biznes" transform="translate(-18 -65)">
    <g transform="matrix(1, 0, 0, 1, 18, 65)" filter="url(#Ellipse_2)">
      <circle id="Ellipse_2-2" data-name="Ellipse 2" cx="10" cy="10" r="10" transform="translate(12 9)" fill="#fff"/>
    </g>
    <path id="person" d="M85.309,10.359a1.006,1.006,0,0,1-.866-.486.242.242,0,1,0-.414.252,1.5,1.5,0,0,0,.507.5l-.251,1.139-.605-.7a.243.243,0,1,0-.353-.332l-.426.49-1.073-1.192a1.479,1.479,0,0,0,.162-.568,3.243,3.243,0,0,0,4.153-3.108v-2a.242.242,0,0,0-.484,0v2a2.755,2.755,0,1,1-5.51,0V4.306A1.368,1.368,0,0,0,81.421,3.23a8.285,8.285,0,0,0,3.325,1.23.242.242,0,0,0,.067-.48,7.8,7.8,0,0,1-3.434-1.363.243.243,0,0,0-.382.2,1.1,1.1,0,0,1-.458.881,1,1,0,0,1-.63.117.242.242,0,0,0-.243.214c0,.023,0-.056,0,1.938a.5.5,0,0,1-.272-.443V2.573A.576.576,0,0,1,79.968,2a.242.242,0,0,0,.225-.152A2.155,2.155,0,0,1,82.2.484H84.28A2.168,2.168,0,0,1,86.446,2.65V5.524a.242.242,0,0,0,.484,0V2.65A2.653,2.653,0,0,0,84.28,0H82.2a2.636,2.636,0,0,0-2.4,1.526,1.061,1.061,0,0,0-.9,1.047v2.95a.988.988,0,0,0,.759.957,3.244,3.244,0,0,0,1.844,2.8v.064A1.01,1.01,0,0,1,80.5,10.359a2.5,2.5,0,0,0-2.5,2.5v1.431a.242.242,0,0,0,.484,0V12.858A2.014,2.014,0,0,1,80.5,10.843a1.512,1.512,0,0,0,.316-.034l.338,1.534a.242.242,0,0,0,.419.107l.477-.549-.295,2.359a.242.242,0,0,0,.481.06l.341-2.726c.015.017.15.168.167.183a.242.242,0,0,0,.341-.021l.145-.167.341,2.731a.242.242,0,0,0,.481-.06L83.758,11.9l.477.549a.242.242,0,0,0,.419-.107l.338-1.534a1.521,1.521,0,0,0,.316.034,2.014,2.014,0,0,1,2.015,2.015v1.431a.242.242,0,0,0,.484,0V12.858a2.5,2.5,0,0,0-2.5-2.5Zm-3.785,1.41-.251-1.139a1.5,1.5,0,0,0,.259-.2l.587.652Z" transform="translate(-43 76)" fill="#08c"/>
  </g>
</svg>
