<svg xmlns="http://www.w3.org/2000/svg" width="38" height="38" viewBox="0 0 38 38">
  <g id="Group_274" data-name="Group 274" transform="translate(-646 -1129)">
    <g id="instagram-social-network-logo-of-photo-camera" transform="translate(654 1137)">
      <path id="Path_327" data-name="Path 327" d="M2.824,0H19.176A2.757,2.757,0,0,1,22,2.824V19.176A2.757,2.757,0,0,1,19.176,22H2.824A2.757,2.757,0,0,1,0,19.176V2.824A2.757,2.757,0,0,1,2.824,0Zm13.2,2.444a.993.993,0,0,0-.99.991V5.805a.993.993,0,0,0,.99.991h2.487a.993.993,0,0,0,.991-.991V3.435a.993.993,0,0,0-.991-.991ZM19.514,9.3H17.577a6.434,6.434,0,0,1,.282,1.887,6.735,6.735,0,0,1-6.839,6.626,6.734,6.734,0,0,1-6.838-6.626A6.424,6.424,0,0,1,4.465,9.3H2.445V18.6a.877.877,0,0,0,.875.875h15.32a.877.877,0,0,0,.875-.875V9.3ZM11.021,6.671A4.351,4.351,0,0,0,6.6,10.952a4.351,4.351,0,0,0,4.418,4.281,4.352,4.352,0,0,0,4.419-4.281A4.352,4.352,0,0,0,11.021,6.671Z" fill="#fff"/>
    </g>
    <g id="Ellipse_8" data-name="Ellipse 8" transform="translate(646 1129)" fill="none" stroke="#fff" stroke-width="1">
      <circle cx="19" cy="19" r="19" stroke="none"/>
      <circle cx="19" cy="19" r="18.5" fill="none"/>
    </g>
  </g>
</svg>
