<svg xmlns="http://www.w3.org/2000/svg" xmlns:xlink="http://www.w3.org/1999/xlink" width="44" height="44" viewBox="0 0 44 44">
  <defs>
    <filter id="Ellipse_2" x="0" y="0" width="44" height="44" filterUnits="userSpaceOnUse">
      <feOffset dy="3" input="SourceAlpha"/>
      <feGaussianBlur stdDeviation="4" result="blur"/>
      <feFlood flood-opacity="0.161"/>
      <feComposite operator="in" in2="blur"/>
      <feComposite in="SourceGraphic"/>
    </filter>
  </defs>
  <g id="phone" transform="translate(-92.933 12)">
    <g transform="matrix(1, 0, 0, 1, 92.93, -12)" filter="url(#Ellipse_2)">
      <g id="Ellipse_2-2" data-name="Ellipse 2" transform="translate(12 9)" fill="#fff" stroke="#fff" stroke-width="1">
        <circle cx="10" cy="10" r="10" stroke="none"/>
        <circle cx="10" cy="10" r="9.5" fill="none"/>
      </g>
    </g>
    <g id="Group_344" data-name="Group 344">
      <g id="Group_331" data-name="Group 331" transform="translate(113.389 0.67)">
        <g id="Group_330" data-name="Group 330">
          <path id="Path_372" data-name="Path 372" d="M207.257,25.6h-2.232a.223.223,0,0,0,0,.446h2.232a.223.223,0,0,0,0-.446Z" transform="translate(-204.801 -25.6)" fill="#08c"/>
        </g>
      </g>
      <g id="Group_333" data-name="Group 333" transform="translate(116.961 0.67)">
        <g id="Group_332" data-name="Group 332" transform="translate(0)">
          <path id="Path_373" data-name="Path 373" d="M341.781,25.6h-.223a.223.223,0,0,0,0,.446h.223a.223.223,0,1,0,0-.446Z" transform="translate(-341.334 -25.6)" fill="#08c"/>
        </g>
      </g>
      <g id="Group_335" data-name="Group 335" transform="translate(113.835 11.386)">
        <g id="Group_334" data-name="Group 334">
          <path id="Path_374" data-name="Path 374" d="M223.037,435.2h-.554a.617.617,0,0,0-.616.616v.108a.616.616,0,0,0,.616.616h.554a.617.617,0,0,0,.616-.616v-.108A.617.617,0,0,0,223.037,435.2Zm.169.724a.169.169,0,0,1-.169.169h-.554a.169.169,0,0,1-.169-.169v-.108a.17.17,0,0,1,.169-.169h.554a.169.169,0,0,1,.169.169Z" transform="translate(-221.867 -435.2)" fill="#08c"/>
        </g>
      </g>
      <g id="Group_337" data-name="Group 337" transform="translate(110.933)">
        <g id="Group_336" data-name="Group 336">
          <path id="Path_375" data-name="Path 375" d="M117.717,0H111.74a.808.808,0,0,0-.807.807V12.588a.808.808,0,0,0,.807.807h5.976a.808.808,0,0,0,.807-.807V.807A.808.808,0,0,0,117.717,0Zm.36,12.588a.361.361,0,0,1-.36.361H111.74a.361.361,0,0,1-.361-.36V.807a.361.361,0,0,1,.361-.361h5.976a.361.361,0,0,1,.361.361V12.588Z" transform="translate(-110.933)" fill="#08c"/>
        </g>
      </g>
      <g id="Group_339" data-name="Group 339" transform="translate(110.933 1.34)">
        <g id="Group_338" data-name="Group 338" transform="translate(0)">
          <path id="Path_376" data-name="Path 376" d="M118.3,51.2h-7.144a.223.223,0,0,0-.223.223V60.8a.223.223,0,0,0,.223.223H118.3a.223.223,0,0,0,.223-.223V51.423A.223.223,0,0,0,118.3,51.2Zm-.223,9.377h-6.7v-8.93h6.7Z" transform="translate(-110.934 -51.2)" fill="#08c"/>
        </g>
      </g>
    </g>
  </g>
</svg>
