<svg xmlns="http://www.w3.org/2000/svg" xmlns:xlink="http://www.w3.org/1999/xlink" width="44" height="44" viewBox="0 0 44 44">
  <defs>
    <filter id="Path_389" x="0" y="0" width="44" height="44" filterUnits="userSpaceOnUse">
      <feOffset dy="3" input="SourceAlpha"/>
      <feGaussianBlur stdDeviation="4" result="blur"/>
      <feFlood flood-opacity="0.161"/>
      <feComposite operator="in" in2="blur"/>
      <feComposite in="SourceGraphic"/>
    </filter>
  </defs>
  <g id="portfolio" transform="translate(16 -19)">
    <g id="Group_341" data-name="Group 341" transform="translate(0 32)">
      <g transform="matrix(1, 0, 0, 1, -16, -13)" filter="url(#Path_389)">
        <g id="Path_389-2" data-name="Path 389" transform="translate(12 9)" fill="#fff">
          <path d="M 10 19.5 C 4.761680126190186 19.5 0.5 15.23832035064697 0.5 10 C 0.5 4.761680126190186 4.761680126190186 0.5 10 0.5 C 15.23832035064697 0.5 19.5 4.761680126190186 19.5 10 C 19.5 15.23832035064697 15.23832035064697 19.5 10 19.5 Z" stroke="none"/>
          <path d="M 10 1 C 5.037380218505859 1 1 5.037380218505859 1 10 C 1 14.96261978149414 5.037380218505859 19 10 19 C 14.96261978149414 19 19 14.96261978149414 19 10 C 19 5.037380218505859 14.96261978149414 1 10 1 M 10 0 C 15.52285003662109 0 20 4.477149963378906 20 10 C 20 15.52285003662109 15.52285003662109 20 10 20 C 4.477149963378906 20 0 15.52285003662109 0 10 C 0 4.477149963378906 4.477149963378906 0 10 0 Z" stroke="none" fill="#fff"/>
        </g>
      </g>
      <path id="Path_378" data-name="Path 378" d="M12.5,34.192H10.085v-.658A1.536,1.536,0,0,0,8.55,32H4.6a1.536,1.536,0,0,0-1.535,1.535v.658H.658A.658.658,0,0,0,0,34.85v4.385a.658.658,0,0,0,.438.617v2.89A.658.658,0,0,0,1.1,43.4H12.058a.658.658,0,0,0,.658-.658v-2.89a.658.658,0,0,0,.438-.617V34.85A.658.658,0,0,0,12.5,34.192Zm-8.988-.658a1.1,1.1,0,0,1,1.1-1.1H8.55a1.1,1.1,0,0,1,1.1,1.1v.658H9.2l.009-.658a.659.659,0,0,0-.658-.658H4.6a.659.659,0,0,0-.658.658v0l.006.655H3.508Zm5.261,0-.009.661H4.382l-.007-.658a.219.219,0,0,1,.219-.219H8.55A.219.219,0,0,1,8.769,33.532Zm3.508,9.211a.219.219,0,0,1-.219.219H1.1a.219.219,0,0,1-.219-.219v-2.85H2.412v.658a.219.219,0,0,0,.219.219h.877a.219.219,0,0,0,.219-.219v-.658h5.7v.658a.219.219,0,0,0,.219.219h.877a.219.219,0,0,0,.219-.219v-.658h1.535ZM2.85,40.331v-1.1a.214.214,0,0,1,.067-.156.209.209,0,0,1,.152-.063.219.219,0,0,1,.219.219v1.1Zm7.015,0v-1.1a.219.219,0,0,1,.219-.219.214.214,0,0,1,.156.067.211.211,0,0,1,.063.152v1.1Zm2.85-1.1a.219.219,0,0,1-.219.219H10.742v-.219a.658.658,0,0,0-1.315,0v.219h-5.7v-.219a.658.658,0,0,0-1.315,0v.219H.658a.219.219,0,0,1-.219-.219V34.85a.219.219,0,0,1,.219-.219H12.5a.219.219,0,0,1,.219.219Z" transform="translate(0 -32)" fill="#08c"/>
    </g>
  </g>
</svg>
