<svg xmlns="http://www.w3.org/2000/svg" xmlns:xlink="http://www.w3.org/1999/xlink" width="42" height="42" viewBox="0 0 42 42">
  <defs>
    <filter id="Ellipse_9" x="0" y="0" width="42" height="42" filterUnits="userSpaceOnUse">
      <feOffset dy="3" input="SourceAlpha"/>
      <feGaussianBlur stdDeviation="3" result="blur"/>
      <feFlood flood-opacity="0.161"/>
      <feComposite operator="in" in2="blur"/>
      <feComposite in="SourceGraphic"/>
    </filter>
  </defs>
  <g id="profile" transform="translate(9 6)">
    <g transform="matrix(1, 0, 0, 1, -9, -6)" filter="url(#Ellipse_9)">
      <g id="Ellipse_9-2" data-name="Ellipse 9" transform="translate(9 6)" fill="#08c" stroke="#fff" stroke-width="1">
        <circle cx="12" cy="12" r="12" stroke="none"/>
        <circle cx="12" cy="12" r="11.5" fill="none"/>
      </g>
    </g>
    <path id="profile-2" data-name="profile" d="M0,14l.106-.732C.513,10.451,3.477,8.326,7,8.326s6.487,2.125,6.895,4.942L14,14Zm1.577-1.282H12.424C11.737,10.9,9.553,9.608,7,9.608S2.263,10.9,1.577,12.718Zm1.5-8.831a3.926,3.926,0,0,1,7.852,0,3.926,3.926,0,0,1-7.852,0Zm1.295,0A2.632,2.632,0,1,0,7,1.281,2.622,2.622,0,0,0,4.368,3.887Z" transform="translate(4.999 4.005)" fill="#fff"/>
  </g>
</svg>
