<svg xmlns="http://www.w3.org/2000/svg" xmlns:xlink="http://www.w3.org/1999/xlink" width="44" height="44" viewBox="0 0 44 44">
  <defs>
    <filter id="Ellipse_2" x="0" y="0" width="44" height="44" filterUnits="userSpaceOnUse">
      <feOffset dy="3" input="SourceAlpha"/>
      <feGaussianBlur stdDeviation="4" result="blur"/>
      <feFlood flood-opacity="0.161"/>
      <feComposite operator="in" in2="blur"/>
      <feComposite in="SourceGraphic"/>
    </filter>
  </defs>
  <g id="repair" transform="translate(15.5 13.001)">
    <g transform="matrix(1, 0, 0, 1, -15.5, -13)" filter="url(#Ellipse_2)">
      <g id="Ellipse_2-2" data-name="Ellipse 2" transform="translate(12 9)" fill="#fff" stroke="#fff" stroke-width="1">
        <circle cx="10" cy="10" r="10" stroke="none"/>
        <circle cx="10" cy="10" r="9.5" fill="none"/>
      </g>
    </g>
    <path id="Path_383" data-name="Path 383" d="M337.558,155.148a.218.218,0,1,0,.218.218A.218.218,0,0,0,337.558,155.148Zm0,0" transform="translate(-329.483 -151.76)" fill="#08c"/>
    <path id="Path_384" data-name="Path 384" d="M155.863,336.84a.218.218,0,1,0,.218.218A.218.218,0,0,0,155.863,336.84Zm0,0" transform="translate(-151.757 -329.484)" fill="#08c"/>
    <path id="Path_385" data-name="Path 385" d="M11.41,1.343a.218.218,0,0,0-.2.059l-.905.913H9.867l-.478-.5v-.44l.892-.906A.218.218,0,0,0,10.2.113,2.186,2.186,0,0,0,7.388,2.749L5.779,4.358,3.1,1.672V1.144A.218.218,0,0,0,2.993.957L1.448.03a.218.218,0,0,0-.267.033L.564.681A.219.219,0,0,0,.531.948l.927,1.544a.218.218,0,0,0,.187.106h.527l2.68,2.686-1.6,1.6A2.185,2.185,0,0,0,.614,9.695a.218.218,0,0,0,.362.084l.905-.913h.436l.5.5V9.8l-.913.905a.218.218,0,0,0,.084.362,2.185,2.185,0,0,0,2.47-.8,2.16,2.16,0,0,0,.338-1.84L6.081,7.144l.295.32L6.241,7.6a.218.218,0,0,0,.309.309l.123-.123,2.766,3,.006.006A1.311,1.311,0,0,0,11.3,8.944l-.007-.006L8.282,6.177,8.4,6.055a.218.218,0,1,0-.309-.309l-.134.134-.321-.295L8.932,4.293a2.185,2.185,0,0,0,2.636-2.807.218.218,0,0,0-.157-.143Zm-8.993.883a.216.216,0,0,0-.155-.062H1.769L.993.869,1.37.493l1.292.775v.494a.218.218,0,0,0,.064.154L5.47,4.667l-.309.309Zm5.555,4.26,3.02,2.77a.874.874,0,0,1-1.236,1.236L6.981,7.477Zm-.322-.3-.965.965-.295-.32L7.33,5.9ZM9.5,3.93a1.745,1.745,0,0,1-.558-.091.219.219,0,0,0-.224.053L4.393,8.215a.218.218,0,0,0-.053.224,1.749,1.749,0,0,1-1.656,2.305,1.789,1.789,0,0,1-.19-.01l.694-.688a.218.218,0,0,0,.065-.155V9.273a.218.218,0,0,0-.064-.154l-.625-.625a.218.218,0,0,0-.154-.064H1.79a.219.219,0,0,0-.155.065l-.688.694A1.767,1.767,0,0,1,.937,9,1.749,1.749,0,0,1,3.242,7.341a.218.218,0,0,0,.224-.053L7.789,2.965a.218.218,0,0,0,.053-.224A1.749,1.749,0,0,1,9.5.436a1.785,1.785,0,0,1,.2.011l-.679.689a.218.218,0,0,0-.063.153v.618a.218.218,0,0,0,.061.152l.6.625a.218.218,0,0,0,.157.067h.618a.218.218,0,0,0,.155-.065l.688-.694a1.767,1.767,0,0,1,.01.19A1.749,1.749,0,0,1,9.5,3.93Zm0,0" transform="translate(0 0)" fill="#08c"/>
    <path id="Path_386" data-name="Path 386" d="M186.721,183.489l-2.733,2.733a.218.218,0,0,0,.309.309l2.733-2.733a.218.218,0,0,0-.309-.309Zm0,0" transform="translate(-179.418 -179.42)" fill="#08c"/>
    <path id="Path_387" data-name="Path 387" d="M347.312,347.407a.218.218,0,1,0,.308-.309l-1.969-1.962a.218.218,0,0,0-.308.309Zm0,0" transform="translate(-337.249 -337.536)" fill="#08c"/>
  </g>
</svg>
