<svg xmlns="http://www.w3.org/2000/svg" xmlns:xlink="http://www.w3.org/1999/xlink" width="44" height="44" viewBox="0 0 44 44">
  <defs>
    <filter id="Ellipse_2" x="0" y="0" width="44" height="44" filterUnits="userSpaceOnUse">
      <feOffset dy="3" input="SourceAlpha"/>
      <feGaussianBlur stdDeviation="4" result="blur"/>
      <feFlood flood-opacity="0.161"/>
      <feComposite operator="in" in2="blur"/>
      <feComposite in="SourceGraphic"/>
    </filter>
  </defs>
  <g id="sofa_1_" data-name="sofa (1)" transform="translate(15 11)">
    <g id="Group_342" data-name="Group 342" transform="translate(0)">
      <g transform="matrix(1, 0, 0, 1, -15, -11)" filter="url(#Ellipse_2)">
        <circle id="Ellipse_2-2" data-name="Ellipse 2" cx="10" cy="10" r="10" transform="translate(12 9)" fill="#fff"/>
      </g>
      <path id="Path_388" data-name="Path 388" d="M11.762,4.514a1.646,1.646,0,0,0-1.24-1.2c-.049-.01-.1-.009-.148-.014A4.239,4.239,0,0,0,6.234,0H5.578A4.24,4.24,0,0,0,1.437,3.3,1.617,1.617,0,0,0,0,4.921,1.642,1.642,0,0,0,.656,6.226V9.186a1.308,1.308,0,0,0,.656,1.13v.511a.984.984,0,0,0,1.969,0V10.5H8.53v.328a.984.984,0,0,0,1.969,0v-.511a1.308,1.308,0,0,0,.656-1.13V6.227A1.641,1.641,0,0,0,11.762,4.514ZM5.577.656h.656a3.585,3.585,0,0,1,3.478,2.7A1.612,1.612,0,0,0,8.53,4.921v1.64H3.281V4.991A1.7,1.7,0,0,0,2.1,3.352,3.585,3.585,0,0,1,5.577.656ZM9.186,7.545a.328.328,0,0,1-.328.328H2.953a.328.328,0,1,1,0-.656H8.858A.328.328,0,0,1,9.186,7.545ZM2.624,10.826a.328.328,0,1,1-.656,0V10.5h.656Zm7.217,0a.328.328,0,0,1-.656,0V10.5h.656Zm.819-5.058a.328.328,0,0,0-.163.284V9.186a.657.657,0,0,1-.656.656H1.968a.657.657,0,0,1-.656-.656V6.051a.329.329,0,0,0-.163-.284.973.973,0,0,1-.493-.847.985.985,0,0,1,1.152-.97,1.032,1.032,0,0,1,.817,1.041V6.622A.982.982,0,0,0,2.953,8.53H8.858a.982.982,0,0,0,.328-1.908v-1.7a.984.984,0,1,1,1.475.847Z" transform="translate(1 2)" fill="#08c"/>
    </g>
  </g>
</svg>
